<svg id="visual" viewBox="0 0 1500 300" width="1500" height="300" xmlns="http://www.w3.org/2000/svg" xmlns:xlink="http://www.w3.org/1999/xlink" version="1.1"><path d="M0 60L27.8 56.8C55.7 53.7 111.3 47.3 166.8 52.5C222.3 57.7 277.7 74.3 333.2 85.7C388.7 97 444.3 103 500 95.5C555.7 88 611.3 67 666.8 65.8C722.3 64.7 777.7 83.3 833.2 88.8C888.7 94.3 944.3 86.7 1000 87.2C1055.7 87.7 1111.3 96.3 1166.8 92.5C1222.3 88.7 1277.7 72.3 1333.2 66C1388.7 59.7 1444.3 63.3 1472.2 65.2L1500 67L1500 301L1472.2 301C1444.3 301 1388.7 301 1333.2 301C1277.7 301 1222.3 301 1166.8 301C1111.3 301 1055.7 301 1000 301C944.3 301 888.7 301 833.2 301C777.7 301 722.3 301 666.8 301C611.3 301 555.7 301 500 301C444.3 301 388.7 301 333.2 301C277.7 301 222.3 301 166.8 301C111.3 301 55.7 301 27.8 301L0 301Z" fill="#393939"></path><path d="M0 117L27.8 118.5C55.7 120 111.3 123 166.8 128.7C222.3 134.3 277.7 142.7 333.2 139.7C388.7 136.7 444.3 122.3 500 112.8C555.7 103.3 611.3 98.7 666.8 96.5C722.3 94.3 777.7 94.7 833.2 102.7C888.7 110.7 944.3 126.3 1000 134.8C1055.7 143.3 1111.3 144.7 1166.8 136C1222.3 127.3 1277.7 108.7 1333.2 106C1388.7 103.3 1444.3 116.7 1472.2 123.3L1500 130L1500 301L1472.2 301C1444.3 301 1388.7 301 1333.2 301C1277.7 301 1222.3 301 1166.8 301C1111.3 301 1055.7 301 1000 301C944.3 301 888.7 301 833.2 301C777.7 301 722.3 301 666.8 301C611.3 301 555.7 301 500 301C444.3 301 388.7 301 333.2 301C277.7 301 222.3 301 166.8 301C111.3 301 55.7 301 27.8 301L0 301Z" fill="#464e66"></path><path d="M0 168L27.8 169.8C55.7 171.7 111.3 175.3 166.8 177.2C222.3 179 277.7 179 333.2 178.2C388.7 177.3 444.3 175.7 500 174.8C555.7 174 611.3 174 666.8 167.7C722.3 161.3 777.7 148.7 833.2 144.8C888.7 141 944.3 146 1000 145C1055.7 144 1111.3 137 1166.8 134C1222.3 131 1277.7 132 1333.2 141.2C1388.7 150.3 1444.3 167.7 1472.2 176.3L1500 185L1500 301L1472.2 301C1444.3 301 1388.7 301 1333.2 301C1277.7 301 1222.3 301 1166.8 301C1111.3 301 1055.7 301 1000 301C944.3 301 888.7 301 833.2 301C777.7 301 722.3 301 666.8 301C611.3 301 555.7 301 500 301C444.3 301 388.7 301 333.2 301C277.7 301 222.3 301 166.8 301C111.3 301 55.7 301 27.8 301L0 301Z" fill="#4f6596"></path><path d="M0 218L27.8 211.7C55.7 205.3 111.3 192.7 166.8 193.8C222.3 195 277.7 210 333.2 211C388.7 212 444.3 199 500 199.5C555.7 200 611.3 214 666.8 222.3C722.3 230.7 777.7 233.3 833.2 226.2C888.7 219 944.3 202 1000 196.2C1055.7 190.3 1111.3 195.7 1166.8 195.8C1222.3 196 1277.7 191 1333.2 191C1388.7 191 1444.3 196 1472.2 198.5L1500 201L1500 301L1472.2 301C1444.3 301 1388.7 301 1333.2 301C1277.7 301 1222.3 301 1166.8 301C1111.3 301 1055.7 301 1000 301C944.3 301 888.7 301 833.2 301C777.7 301 722.3 301 666.8 301C611.3 301 555.7 301 500 301C444.3 301 388.7 301 333.2 301C277.7 301 222.3 301 166.8 301C111.3 301 55.7 301 27.8 301L0 301Z" fill="#537dc9"></path><path d="M0 241L27.8 237.7C55.7 234.3 111.3 227.7 166.8 233.3C222.3 239 277.7 257 333.2 262.7C388.7 268.3 444.3 261.7 500 259.7C555.7 257.7 611.3 260.3 666.8 256.3C722.3 252.3 777.7 241.7 833.2 238C888.7 234.3 944.3 237.7 1000 245.7C1055.7 253.7 1111.3 266.3 1166.8 273.3C1222.3 280.3 1277.7 281.7 1333.2 282.3C1388.7 283 1444.3 283 1472.2 283L1500 283L1500 301L1472.2 301C1444.3 301 1388.7 301 1333.2 301C1277.7 301 1222.3 301 1166.8 301C1111.3 301 1055.7 301 1000 301C944.3 301 888.7 301 833.2 301C777.7 301 722.3 301 666.8 301C611.3 301 555.7 301 500 301C444.3 301 388.7 301 333.2 301C277.7 301 222.3 301 166.8 301C111.3 301 55.7 301 27.8 301L0 301Z" fill="#4f96ff"></path></svg>